<?xml version="1.0" standalone="no"?>
<!DOCTYPE svg PUBLIC "-//W3C//DTD SVG 20010904//EN"
 "http://www.w3.org/TR/2001/REC-SVG-20010904/DTD/svg10.dtd">
<svg version="1.0" xmlns="http://www.w3.org/2000/svg"
 width="100.000000pt" height="100.000000pt" viewBox="0 0 100.000000 100.000000"
 preserveAspectRatio="xMidYMid meet">
<metadata>
Created by potrace 1.10, written by Peter Selinger 2001-2011
</metadata>
<g transform="translate(0.000000,100.000000) scale(0.100000,-0.100000)"
fill="#ffffff" stroke="none">
<path d="M400 949 c-70 -14 -163 -66 -223 -126 -105 -105 -153 -252 -129 -395
50 -299 372 -470 647 -344 68 31 165 122 205 191 74 129 77 303 9 437 -19 37
-22 39 -36 25 -14 -14 -13 -20 7 -61 143 -296 -121 -644 -446 -589 -279 48
-433 346 -310 598 108 220 397 302 599 169 44 -29 48 -60 12 -94 -23 -21 -26
-22 -42 -8 -51 45 -107 63 -193 63 -100 -1 -160 -24 -225 -90 -66 -65 -89
-125 -90 -225 0 -78 3 -90 34 -148 38 -70 69 -100 145 -140 44 -23 63 -27 136
-27 73 0 92 4 136 27 76 40 107 70 145 140 30 57 33 71 34 148 0 69 -5 94 -24
133 -22 44 -25 47 -39 33 -14 -14 -14 -19 2 -53 27 -57 31 -130 12 -198 -32
-110 -148 -195 -266 -195 -150 0 -280 130 -280 280 0 118 85 234 195 266 74
21 145 14 214 -20 28 -15 51 -30 51 -34 0 -5 -15 -22 -33 -40 l-33 -32 -39 20
c-51 26 -100 25 -155 -2 -132 -67 -132 -249 0 -315 134 -69 278 40 256 192 -7
44 -8 46 -25 30 -14 -12 -17 -26 -14 -58 5 -51 -20 -97 -69 -127 -117 -71
-259 71 -188 188 44 71 144 94 199 45 9 -7 -63 -73 -80 -73 -39 0 -51 -52 -17
-74 22 -14 51 2 56 30 2 10 58 74 125 142 93 93 128 122 147 122 17 0 44 17
80 50 l54 50 -42 0 -42 0 0 43 -1 42 -37 -42 -37 -42 -55 34 c-93 58 -211 77
-330 54z m440 -119 c0 -13 -7 -20 -20 -20 -23 0 -26 10 -8 28 18 18 28 15 28
-8z"/>
</g>
</svg>
